<?xml version="1.0" encoding="UTF-8"?>
<svg id="Capa_1" xmlns="http://www.w3.org/2000/svg" version="1.1" viewBox="0 0 198.51 58.51">
  <!-- Generator: Adobe Illustrator 29.4.0, SVG Export Plug-In . SVG Version: 2.1.0 Build 152)  -->
  <defs>
    <style>
      .st0 {
        fill: #fff;
      }

      .st1 {
        fill: #cc2900;
      }
    </style>
  </defs>
  <path class="st1" d="M67.56,58.51H0L33.78,0l33.78,58.51ZM12.12,51.51h43.31L33.78,14,12.12,51.51Z"/>
  <g>
    <path class="st0" d="M45.24,48.31c-1.79,0-3.19-.25-4.19-.76-1.01-.5-1.71-1.26-2.12-2.27-.4-1.01-.6-2.25-.6-3.74v-8.43c0-2.42.54-4.2,1.62-5.35,1.08-1.15,2.85-1.72,5.29-1.72h11.37c1.74,0,3.07.09,3.99.28s1.38.38,1.38.59l-.76,3.14c-.43-.08-1.69-.16-3.8-.25-2.1-.09-5.16-.13-9.16-.13h-1.93c-2.02,0-3.02.89-3.02,2.68v9.63c0,.86.22,1.52.66,1.98.44.47,1.23.7,2.36.7h1.55c4.18,0,7.42-.04,9.73-.13s3.73-.18,4.29-.28l1.55,2.49c0,.13-.21.32-.62.57-.42.25-1.18.48-2.29.68s-2.71.3-4.8.3h-10.5v.02Z"/>
    <path class="st0" d="M66.47,48.31v-16.93h3.1l1.44.76c.65-.35,1.36-.63,2.12-.83s1.71-.3,2.87-.3c1.84,0,3.33.2,4.48.6,1.15.4,1.91.71,2.29.91l-1.32,3.29c-.3-.15-.8-.35-1.49-.59-.69-.24-1.5-.46-2.44-.66-.93-.2-1.95-.3-3.06-.3h-.42c-1.21,0-2,.24-2.36.72-.37.48-.56,1.27-.59,2.38v10.96h-4.62Z"/>
    <path class="st0" d="M88.08,29c-.93,0-1.61-.19-2.04-.57s-.64-1.01-.64-1.89.21-1.54.62-1.91c.42-.36,1.1-.55,2.06-.55s1.65.18,2.08.55c.43.37.64,1,.64,1.91,0,.86-.21,1.48-.64,1.87-.43.39-1.12.59-2.08.59ZM85.77,48.31v-16.93h4.61v16.93h-4.61Z"/>
    <path class="st0" d="M95.33,48.31v-16.93h3.1l.94.45c.73-.13,1.62-.23,2.68-.32s2.32-.13,3.78-.13h1.89c.73,0,1.44.09,2.12.28s1.18.46,1.51.81c.65-.33,1.56-.59,2.72-.79s2.67-.3,4.54-.3h1.89c1.26,0,2.23.18,2.91.53s1.17.79,1.46,1.32c.29.53.46,1.06.53,1.61.06.54.09,1,.09,1.38v12.09h-4.61v-12.17c0-1.01-.6-1.51-1.81-1.51h-5.29c-.4,0-.68.05-.83.15-.15.1-.23.33-.23.68v12.85h-4.61v-12.17c0-1.01-.6-1.51-1.81-1.51h-5.21c-.48,0-.79.04-.93.13s-.21.32-.21.7v12.85h-4.62Z"/>
    <path class="st0" d="M134.1,48.31c-1.69,0-2.88-.09-3.59-.26-.71-.18-1.06-.35-1.06-.53l1.13-2.83c.73.08,2.07.16,4.02.25s4.36.13,7.24.13h1.89c.63,0,1.03-.17,1.19-.51s.25-.8.25-1.38-.09-1.04-.28-1.4c-.19-.35-.57-.53-1.15-.53h-9.29c-1.76,0-3.04-.33-3.82-1-.78-.67-1.17-1.67-1.17-3v-1.51c0-.35.04-.77.11-1.25.08-.48.26-.96.57-1.44.3-.48.79-.88,1.47-1.19.68-.31,1.62-.47,2.83-.47h10.43c1.51,0,2.58.09,3.21.26.63.18.94.35.94.53l-.38,2.83c-.73-.08-2.08-.16-4.04-.25-1.96-.09-4.37-.13-7.22-.13h-1.89c-.63,0-1.03.17-1.19.51s-.25.74-.25,1.19c0,.48.08.88.25,1.19.16.31.56.47,1.19.47h9.29c1.71,0,2.97.35,3.78,1.06.81.71,1.21,1.6,1.21,2.68v2.23c0,.45-.03.93-.09,1.44s-.25.98-.55,1.42-.79.8-1.47,1.08c-.68.28-1.64.42-2.87.42h-10.69Z"/>
    <path class="st0" d="M158.54,48.31c-1.69,0-2.94-.34-3.76-1.02-.82-.68-1.23-1.79-1.23-3.32v-7.75c0-.38.03-.84.09-1.38s.24-1.08.53-1.61.78-.97,1.47-1.32c.69-.35,1.66-.53,2.89-.53h10.43c1.26,0,2.23.18,2.91.53.68.35,1.16.79,1.45,1.32s.47,1.06.53,1.61c.06.54.09,1,.09,1.38v7.25c0,.45-.03.96-.09,1.51s-.25,1.08-.55,1.59c-.3.5-.79.92-1.47,1.25-.68.33-1.64.49-2.87.49h-10.43,0ZM159.97,45.06h7.56c1.23,0,1.85-.5,1.85-1.51v-7.4c0-1.01-.62-1.51-1.85-1.51h-7.56c-1.21,0-1.81.5-1.81,1.51v7.4c0,1.01.6,1.51,1.81,1.51Z"/>
    <path class="st0" d="M178.11,48.31v-16.93h3.1l1.51.76c1.06-.2,2.33-.38,3.82-.53,1.49-.15,3.19-.23,5.1-.23h1.89c1.26,0,2.23.18,2.91.53.68.35,1.16.79,1.45,1.32s.47,1.06.53,1.61c.06.54.09,1,.09,1.38v12.09h-4.61v-12.17c0-1.01-.6-1.51-1.81-1.51h-8.24c-.48,0-.79.04-.93.13s-.21.32-.21.7v12.85h-4.61,0Z"/>
  </g>
</svg>